<?xml version="1.0" encoding="UTF-8"?>
<svg width="1800px" height="872px" viewBox="0 0 1800 872" version="1.1" xmlns="http://www.w3.org/2000/svg" xmlns:xlink="http://www.w3.org/1999/xlink">
    <!-- Generator: Sketch 49.2 (51160) - http://www.bohemiancoding.com/sketch -->
    <title>Panels/Pedestrian/PedestrianLines@1x</title>
    <desc>Created with Sketch.</desc>
    <defs></defs>
    <g id="Panels/Pedestrian/PedestrianLines" stroke="none" stroke-width="1" fill="none" fill-rule="evenodd">
        <g transform="translate(270.000000, 139.000000)" stroke="#5A5D59">
            <g id="Outer-Road" transform="translate(1097.000000, 446.000000)" stroke-dasharray="5.669,5.669" stroke-width="2">
                <path d="M0.122466418,32.4279741 C0.122466418,32.4279741 11.0646306,34.7897388 14.4974664,58.4073859 C17.9303022,82.0250329 28.8724664,143.860327 28.8724664,143.860327" id="Stroke-32"></path>
                <path d="M107.82769,145.79268 L96.7301903,81.5355035 C95.9766828,77.7669859 99.2318694,74.4141388 103.018287,75.0573976 L229.907914,96.6250329" id="Stroke-34"></path>
                <path d="M129.926571,0.00738588235 L229.907914,17.6132682" id="Stroke-36"></path>
            </g>
            <g id="Gates" transform="translate(1108.000000, 427.000000)">
                <path d="M54,8 L100,15" id="Stroke-30" stroke-width="8.504"></path>
                <path d="M0,0 L52,7" id="Stroke-31" stroke-width="5.669"></path>
            </g>
            <polyline id="Boundary-Inner" points="1210.73403 440.346258 1217.7996 441.384149 1233 127.106125 849.867862 67.4976117 670.702551 41.2095107 669.335741 43.9403972 605.410358 39.5473437 544.139707 36.4019858 521.617352 32.5039001 516.176693 25.3542697 411.694607 6 249.571548 105.701763 194.948877 141.502153 160.750328 174.799443 98.1548833 231.318261 5 311.665755 56.293108 475 1090.68969 473.614433 1096.94494 429.581992"></polyline>
            <polyline id="Boundary-Outer" stroke-width="2" points="1103.62894 423.937489 1095.80493 477.60237 53.333088 479 0 309.20594 95.5562954 226.80743 158.094297 170.352427 192.536385 136.822153 247.626057 100.725276 411.446406 0 519.647021 20.0386913 525.069445 27.1621511 545.426267 30.684487 606.462423 33.817165 667.214677 37.9912144 668.70623 35.0118304 851.423583 61.8151536 1239 122.101649 1223.32712 446.105168 1210.95383 444.287906"></polyline>
        </g>
    </g>
</svg>