<?xml version="1.0" encoding="UTF-8"?>
<svg width="1800px" height="872px" viewBox="0 0 1800 872" version="1.1" xmlns="http://www.w3.org/2000/svg" xmlns:xlink="http://www.w3.org/1999/xlink">
    <!-- Generator: Sketch 49.2 (51160) - http://www.bohemiancoding.com/sketch -->
    <title>Panels/Pedestrian/PedestrianRoof</title>
    <desc>Created with Sketch.</desc>
    <defs></defs>
    <g id="Panels/Pedestrian/PedestrianRoof" stroke="none" stroke-width="1" fill="none" fill-rule="evenodd" fill-opacity="0.2">
        <g transform="translate(456.000000, 197.000000)" fill="#999999">
            <polygon id="Stroke-1" points="192.714743 305.685484 132.785886 305.685484 132.785886 329.93587 124.786171 329.93587 124.786171 382.227315 192.714743 382.227315"></polygon>
            <polygon id="Stroke-3" points="260.921629 305.685484 200.993629 305.685484 200.993629 329.93587 192.993057 329.93587 192.993057 382.227315 260.921629 382.227315"></polygon>
            <polygon id="Stroke-5" points="329.128857 305.685484 269.2 305.685484 269.2 329.93587 261.200286 329.93587 261.200286 382.227315 329.128857 382.227315"></polygon>
            <polygon id="Stroke-7" points="397.335829 305.685484 337.406971 305.685484 337.406971 329.93587 329.407257 329.93587 329.407257 382.227315 397.335829 382.227315"></polygon>
            <polygon id="Stroke-9" points="465.543571 305.685484 405.614714 305.685484 405.614714 329.93587 397.614143 329.93587 397.614143 382.227315 465.543571 382.227315"></polygon>
            <polygon id="Stroke-11" points="533.750029 305.685484 473.822029 305.685484 473.822029 329.93587 465.821457 329.93587 465.821457 382.227315 533.750029 382.227315"></polygon>
            <polygon id="Stroke-13" points="601.957343 305.685484 542.028486 305.685484 542.028486 329.93587 534.028771 329.93587 534.028771 382.227315 601.957343 382.227315"></polygon>
            <polygon id="Stroke-15" points="670.164657 305.685484 610.2358 305.685484 610.2358 329.93587 602.236086 329.93587 602.236086 382.227315 670.164657 382.227315"></polygon>
            <polygon id="Stroke-17" points="738.371971 305.685484 678.443114 305.685484 678.443114 329.93587 670.4434 329.93587 670.4434 382.227315 738.371971 382.227315"></polygon>
            <polygon id="Stroke-19" points="806.579286 305.685484 746.650429 305.685484 746.650429 329.93587 738.650714 329.93587 738.650714 382.227315 806.579286 382.227315"></polygon>
            <polygon id="Stroke-21" points="874.785743 305.685484 814.857743 305.685484 814.857743 329.93587 806.857171 329.93587 806.857171 382.227315 874.785743 382.227315"></polygon>
            <polygon id="Stroke-35" points="93.2860286 268.174313 57.8217429 268.174313 57.8217429 275.235289 16.7860286 275.235289 16.7860286 228.162118 0.607457143 228.162118 0.607457143 209.439834 93.2860286 209.439834"></polygon>
            <polygon id="Stroke-37" points="93.2860286 203.12775 57.8217429 203.12775 57.8217429 209.439834 16.7860286 209.439834 16.7860286 164.292384 0.607457143 164.292384 0.607457143 145.5701 93.2860286 145.5701"></polygon>
            <polygon id="Stroke-40" points="13.6433143 119.965291 26.0718857 119.965291 26.0718857 108.125961 35.3573143 108.125961 35.3573143 101.421029 60.6430286 101.421029 60.6430286 84.7314506 79.2147429 84.7314506 79.2147429 72.8921202 93.2864571 72.8921202 93.2864571 138.509553 62.5004571 138.509553 62.5004571 145.570528 13.6433143 145.570528"></polygon>
            <polygon id="Stroke-41" points="145.357457 36.802404 164.428886 36.802404 164.428886 20.8257698 213.393171 20.8257698 213.393171 36.802404 225.393171 36.802404 225.393171 75.2808696 130.4646 75.2808696 130.4646 50.567455 145.357457 50.567455"></polygon>
            <polygon id="Stroke-42" points="133.357457 133.944311 133.357457 75.2808696 209.643171 75.2808696 209.643171 121.962049 225.393171 121.962049 225.393171 139.935442 169.214314 139.935442 169.214314 133.774847"></polygon>
            <polygon id="Stroke-43" points="133.357457 198.705867 133.357457 140.042426 209.643171 140.042426 209.643171 186.723606 225.393171 186.723606 225.393171 204.696998 169.214314 204.696998 169.214314 198.536404"></polygon>
            <polygon id="Stroke-44" points="133.357457 263.181989 133.357457 204.518548 209.643171 204.518548 209.643171 251.199728 225.393171 251.199728 225.393171 269.17312 169.214314 269.17312 169.214314 263.012526"></polygon>
            <polygon id="Stroke-45" points="358.0716 133.944311 358.0716 75.2808696 434.357314 75.2808696 434.357314 121.962049 450.107314 121.962049 450.107314 139.935442 393.928457 139.935442 393.928457 133.774847"></polygon>
            <polygon id="Stroke-46" points="358.0716 198.705867 358.0716 140.042426 434.357314 140.042426 434.357314 186.723606 450.107314 186.723606 450.107314 204.696998 393.928457 204.696998 393.928457 198.536404"></polygon>
            <polygon id="Stroke-47" points="358.0716 263.181989 358.0716 204.518548 434.357314 204.518548 434.357314 251.199728 450.107314 251.199728 450.107314 269.17312 393.928457 269.17312 393.928457 263.012526"></polygon>
            <polygon id="Stroke-48" points="974.643086 324.448149 974.643086 221.52908 942.9288 221.52908 942.9288 248.061231 930.071657 248.061231 930.071657 292.566774 923.857371 292.566774 923.857371 324.448149"></polygon>
            <polygon id="Stroke-49" points="929.429143 157.552191 1007.85771 157.552191 1007.85771 94.2173792 929.429143 94.2173792"></polygon>
            <polygon id="Stroke-51" points="929.4288 215.537949 965.643086 215.537949 965.643086 221.52908 1005.9288 221.52908 1005.9288 157.552362 929.4288 157.552362"></polygon>
            <polygon id="Stroke-52" points="225.393086 200.346153 317.857371 200.346153 317.857371 260.043493 293.214514 260.043493 293.214514 268.887258 241.571657 268.887258 241.571657 218.319546 225.393086 218.319546"></polygon>
            <polygon id="Stroke-53" points="225.393086 131.876087 317.857371 131.876087 317.857371 191.573426 293.214514 191.573426 293.214514 200.418047 241.571657 200.418047 241.571657 149.849479 225.393086 149.849479"></polygon>
            <polygon id="Stroke-54" points="225.393086 64.0479273 317.857371 64.0479273 317.857371 123.123901 293.214514 123.123901 293.214514 131.876087 241.571657 131.876087 241.571657 81.8338829 225.393086 81.8338829"></polygon>
            <polygon id="Stroke-55" points="225.393086 36.802404 225.393086 64.0474993 302.857371 64.0474993 302.857371 54.0979428 317.857371 54.0979428 317.857371 5.63397384 274.035943 5.63397384 274.035943 0.605703326 240.071657 0.605703326 240.071657 36.7664572"></polygon>
            <polygon id="Stroke-57" points="358.0716 75.2812976 358.0716 24.4636701 367.0356 24.4636701 367.0356 12.2674395 435.071314 12.2674395 435.071314 52.7614927 450.107314 52.7614927 450.107314 75.2812976"></polygon>
            <polygon id="Stroke-58" points="464.2146 48.5351778 450.107743 48.5351778 450.107743 75.2812976 527.321743 75.2812976 527.321743 65.54571 541.893171 65.54571 541.893171 23.2868408 498.607457 23.2868408 498.607457 17.6166634 464.2146 17.6166634"></polygon>
            <polygon id="Stroke-59" points="450.107314 93.468659 450.107314 75.2812976 542.5356 75.2812976 542.5356 133.908792 517.678457 133.908792 517.678457 139.93587 466.0476 139.93587 466.0476 93.3882067"></polygon>
            <polygon id="Stroke-60" points="450.107314 222.70591 450.107314 204.518548 542.5356 204.518548 542.5356 263.146043 517.678457 263.146043 517.678457 269.17312 466.0476 269.17312 466.0476 222.625457"></polygon>
            <polygon id="Stroke-61" points="450.107314 139.935442 542.5356 139.935442 542.5356 197.849992 517.643314 197.849992 517.643314 204.518976 466.0476 204.518976 466.0476 157.765903 450.107314 157.765903"></polygon>
            <polygon id="Stroke-62" points="807.071743 131.876087 882.928886 131.876087 882.928886 182.737364 900.214886 182.737364 900.214886 200.346153 842.821457 200.346153 842.821457 193.927085 807.071743 193.927085"></polygon>
            <polygon id="Stroke-64" points="807.071743 200.346153 882.928886 200.346153 882.928886 251.207431 900.214886 251.207431 900.214886 268.81622 842.821457 268.81622 842.821457 262.397151 807.071743 262.397151"></polygon>
            <polygon id="Stroke-65" points="581.950371 131.876087 657.807514 131.876087 657.807514 182.737364 675.093514 182.737364 675.093514 200.346153 617.700086 200.346153 617.700086 193.927085 581.950371 193.927085"></polygon>
            <polygon id="Stroke-66" points="581.950371 200.346153 657.807514 200.346153 657.807514 251.207431 675.093514 251.207431 675.093514 268.81622 617.700086 268.81622 617.700086 262.397151 581.950371 262.397151"></polygon>
            <polygon id="Stroke-67" points="581.950371 52.0656656 598.3578 52.0656656 598.3578 40.2973729 661.143514 40.2973729 661.143514 131.876087 581.950371 131.876087"></polygon>
            <polygon id="Stroke-68" points="689.2146 51.4237588 723.286029 51.4237588 723.286029 56.7729827 767.643171 56.7729827 767.643171 105.129967 752.000314 105.129967 752.000314 114.972539 675.093171 114.972539 675.093171 87.7984816 689.000314 87.7984816"></polygon>
            <polygon id="Stroke-69" points="742.571743 250.501847 742.571743 242.878561 767.643171 242.878561 767.643171 182.737022 675.093171 182.737022 675.093171 200.345811 691.571743 200.345811 691.571743 250.501847"></polygon>
            <polygon id="Stroke-70" points="742.571743 182.737193 742.571743 175.113907 767.643171 175.113907 767.643171 114.972368 675.093171 114.972368 675.093171 132.581157 691.571743 132.581157 691.571743 182.737193"></polygon>
            <polygon id="Stroke-71" points="807.071743 78.8385743 807.071743 131.876344 900.214886 131.876344 900.214886 108.838734 884.857457 108.838734 884.857457 75.1745698 835.571743 75.1745698 835.571743 69.6113769 816.500314 69.6113769 816.500314 78.8120421"></polygon>
        </g>
    </g>
</svg>