<?xml version="1.0" encoding="UTF-8"?>
<svg width="1800px" height="872px" viewBox="0 0 1800 872" version="1.1" xmlns="http://www.w3.org/2000/svg" xmlns:xlink="http://www.w3.org/1999/xlink">
    <!-- Generator: Sketch 49.2 (51160) - http://www.bohemiancoding.com/sketch -->
    <title>Panels/BasementLines</title>
    <desc>Created with Sketch.</desc>
    <defs></defs>
    <g id="Panels/BasementLines" stroke="none" stroke-width="1" fill="none" fill-rule="evenodd">
        <g transform="translate(265.000000, 125.000000)">
            <g id="Outline" stroke="#FFFFFF">
                <polyline id="Stroke-1" stroke-width="4" points="1263.95587 252.192735 1268 145.451063 1205.37109 134.987568 1010.58163 104.461806 843.937443 78.9107124 683.020491 55.4830337 617.813492 47.2898566 617.449487 49.5568359 520.243438 43.2533647 474.088265 40.5089508 456.816391 38.4523098 436.639157 34.2755924 305.333515 8 225.85351 55.7334364 139.637743 109.887199 53.6524006 164.48167 9 207.187019 66.8500887 390.962586 137.079689 390.962586 137.079689 522 1084.79191 522 1084.79191 475.478513 1199.66723 475.478513"></polyline>
                <path d="M1188.5,485.5 C1153.11976,485.485585 1121.76728,485.463781 1094.44256,485.434586 L1094.44256,532 L129.322741,532 L129.322741,400.842198 L61.3372649,400.842198 L0,205.875007 L49.10322,158.885177 L135.83732,103.791348 L222.264065,49.4728286 L304.605,0 L439.192857,26.9453808 L459.070675,31.0625467 L475.741315,33.0476089 L521.664084,35.7812467 L611.221168,41.5893915 L611.662155,38.8457281 L685.223442,48.0926423 L846.203695,71.545784 L1013.00698,97.1343715 L1207.87306,127.688956 L1278,139.412185 L1264.90403,485.434586" id="Stroke-2" stroke-width="2"></path>
            </g>
            <path d="M1253.75233,511 L1267,161.031136 L1149.48834,143.694959 L1100.20301,143.694959 C1098.93337,143.694959 1097.90096,144.724367 1097.90096,145.997759 L1097.90096,383.296508 C1097.90096,384.5699 1096.87188,385.599309 1095.60224,385.599309 L1004.78973,385.599309 C1003.52009,385.599309 1002.49102,384.5699 1002.49102,383.296508 L1002.49102,132.378148 C1002.49102,131.108098 1001.4586,130.075347 1000.18562,130.075347 L958.250826,130.075347 C956.977847,130.075347 955.945431,131.108098 955.945431,132.378148 L955.945431,384.586611 C955.945431,385.860003 954.919697,386.889412 953.646718,386.889412 L737.945286,386.889412 C736.675648,386.889412 735.646573,385.860003 735.646573,384.586611 L735.646573,89.3502029 C735.646573,88.0801533 734.614158,87.0474024 733.34452,87.0474024 L691.403039,87.0474024 C690.133401,87.0474024 689.100985,88.0801533 689.100985,89.3502029 L689.100985,384.462949 C689.100985,385.736341 688.07191,386.765749 686.802272,386.765749 L469.356759,386.765749 C468.087121,386.765749 467.054705,385.736341 467.054705,384.462949 L467.054705,70.3028005 C467.054705,69.0294087 466.02563,68 464.752651,68 L423.435966,68 C422.162987,68 421.133912,69.0294087 421.133912,70.3028005 L421.133912,384.462949 C421.133912,385.736341 420.101496,386.765749 418.831858,386.765749 L202.512313,386.765749 C201.239334,386.765749 200.210259,385.736341 200.210259,384.462949 L200.210259,121.007861 C200.210259,119.737812 199.181184,118.705061 197.908205,118.705061 L155.970066,118.705061 C154.700428,118.705061 153.668012,119.737812 153.668012,121.007861 L153.668012,389.392747 C153.668012,390.666139 152.635596,391.698889 151.365958,391.698889 L136,391.698889 L136,429.442759 L193.227252,429.442759 L193.227252,433.323095 L1142.46858,433.323095 C1143.73822,433.323095 1144.77064,432.290344 1144.77064,431.020295 L1144.77064,387.741682 L1148.32228,387.741682 L1148.32228,205.365896 C1148.32228,204.092504 1149.3547,203.063095 1150.62768,203.063095 L1205.31899,203.063095 C1206.59197,203.063095 1207.62105,204.092504 1207.62105,205.365896 L1207.62105,253.109735 L1197.94173,508.887707" id="Road" stroke="#FFFFFF"></path>
            <path d="M1187.5,491 C1186.5,522.666667 1186,538.5 1186,538.5" id="Path-46" stroke="#FFFFFF" stroke-width="2" stroke-dasharray="5,5,5,5"></path>
            <path d="M1264.5,493 C1263.5,524.666667 1263,540.5 1263,540.5" id="Path-46" stroke="#FFFFFF" stroke-width="2" stroke-dasharray="5,5,5,5"></path>
            <path d="M1253.5,515 L1252,538.5" id="Path-46-Copy" stroke="#FFFFFF" stroke-dasharray="5,5,5,5"></path>
            <path d="M1198,514 L1197,538.5" id="Path-46-Copy-2" stroke="#FFFFFF" stroke-dasharray="5,5,5,5"></path>
            <polygon id="Path-47" fill="#FFFFFF" points="1262 252 1266 252 1256 450"></polygon>
        </g>
    </g>
</svg>